# xmcd
#
# Track frame offsets:
#	150
#	12890
#	37170
#	53387
#	67242
#	92045
#	105665
#	131282
#	150525
#	164932
#
# Disc length: 2465 seconds
#
# Revision: 3
# Processed by: cddbd v1.5.2PL0 Copyright (c) Steve Scherf et al.
# Submitted via: EasyCDDAExtractor 11.1.0.1
#
DISCID=81099f0a
DTITLE=The Smokin' Joe Kubek Band featuring B'nois King - Steppin' Out Texas S
DTITLE=tyle
DYEAR=1991
DGENRE=Blues
TTITLE0=Comin' Home Today
TTITLE1=I Wonder Why
TTITLE2=Natural Born Lover
TTITLE3=Everbody's Talkin'
TTITLE4=Square Bizness
TTITLE5=Hands On It
TTITLE6=Smokin' Joe's Cafe
TTITLE7=That's All I Want
TTITLE8=Steppin' Out
TTITLE9=Lonely Days
EXTD=YEAR: 1991
EXTT0=
EXTT1=
EXTT2=
EXTT3=
EXTT4=
EXTT5=
EXTT6=
EXTT7=
EXTT8=
EXTT9=
PLAYORDER=
